<svg width="10" height="10" viewBox="0 0 10 10" fill="none" xmlns="http://www.w3.org/2000/svg">
<g id="Business / calendar" clip-path="url(#clip0_14_95)">
<path id="Vector" d="M4.99992 7.91638C5.08233 7.91638 5.16289 7.89194 5.23141 7.84616C5.29993 7.80038 5.35333 7.7353 5.38487 7.65917C5.41641 7.58303 5.42466 7.49925 5.40858 7.41843C5.3925 7.3376 5.35282 7.26336 5.29455 7.20509C5.23627 7.14681 5.16203 7.10713 5.08121 7.09105C5.00038 7.07498 4.9166 7.08323 4.84047 7.11476C4.76433 7.1463 4.69926 7.19971 4.65347 7.26823C4.60769 7.33675 4.58325 7.41731 4.58325 7.49971C4.58325 7.61022 4.62715 7.7162 4.70529 7.79434C4.78343 7.87248 4.88941 7.91638 4.99992 7.91638ZM7.08325 7.91638C7.16566 7.91638 7.24622 7.89194 7.31474 7.84616C7.38326 7.80038 7.43667 7.7353 7.4682 7.65917C7.49974 7.58303 7.50799 7.49925 7.49191 7.41843C7.47584 7.3376 7.43615 7.26336 7.37788 7.20509C7.31961 7.14681 7.24537 7.10713 7.16454 7.09105C7.08371 7.07498 6.99994 7.08323 6.9238 7.11476C6.84767 7.1463 6.78259 7.19971 6.73681 7.26823C6.69102 7.33675 6.66659 7.41731 6.66659 7.49971C6.66659 7.61022 6.71048 7.7162 6.78862 7.79434C6.86676 7.87248 6.97275 7.91638 7.08325 7.91638ZM7.08325 6.24971C7.16566 6.24971 7.24622 6.22528 7.31474 6.17949C7.38326 6.13371 7.43667 6.06864 7.4682 5.9925C7.49974 5.91636 7.50799 5.83259 7.49191 5.75176C7.47584 5.67094 7.43615 5.59669 7.37788 5.53842C7.31961 5.48015 7.24537 5.44046 7.16454 5.42439C7.08371 5.40831 6.99994 5.41656 6.9238 5.4481C6.84767 5.47963 6.78259 5.53304 6.73681 5.60156C6.69102 5.67008 6.66659 5.75064 6.66659 5.83305C6.66659 5.94355 6.71048 6.04954 6.78862 6.12768C6.86676 6.20582 6.97275 6.24971 7.08325 6.24971ZM4.99992 6.24971C5.08233 6.24971 5.16289 6.22528 5.23141 6.17949C5.29993 6.13371 5.35333 6.06864 5.38487 5.9925C5.41641 5.91636 5.42466 5.83259 5.40858 5.75176C5.3925 5.67094 5.35282 5.59669 5.29455 5.53842C5.23627 5.48015 5.16203 5.44046 5.08121 5.42439C5.00038 5.40831 4.9166 5.41656 4.84047 5.4481C4.76433 5.47963 4.69926 5.53304 4.65347 5.60156C4.60769 5.67008 4.58325 5.75064 4.58325 5.83305C4.58325 5.94355 4.62715 6.04954 4.70529 6.12768C4.78343 6.20582 4.88941 6.24971 4.99992 6.24971ZM7.91659 1.24972H7.49992V0.833048C7.49992 0.722542 7.45602 0.616561 7.37788 0.538421C7.29974 0.46028 7.19376 0.416382 7.08325 0.416382C6.97275 0.416382 6.86676 0.46028 6.78862 0.538421C6.71048 0.616561 6.66659 0.722542 6.66659 0.833048V1.24972H3.33325V0.833048C3.33325 0.722542 3.28935 0.616561 3.21121 0.538421C3.13307 0.46028 3.02709 0.416382 2.91659 0.416382C2.80608 0.416382 2.7001 0.46028 2.62196 0.538421C2.54382 0.616561 2.49992 0.722542 2.49992 0.833048V1.24972H2.08325C1.75173 1.24972 1.43379 1.38141 1.19937 1.61583C0.964948 1.85025 0.833252 2.16819 0.833252 2.49971V8.33305C0.833252 8.66457 0.964948 8.98251 1.19937 9.21693C1.43379 9.45135 1.75173 9.58305 2.08325 9.58305H7.91659C8.24811 9.58305 8.56605 9.45135 8.80047 9.21693C9.03489 8.98251 9.16659 8.66457 9.16659 8.33305V2.49971C9.16659 2.16819 9.03489 1.85025 8.80047 1.61583C8.56605 1.38141 8.24811 1.24972 7.91659 1.24972ZM8.33325 8.33305C8.33325 8.44355 8.28935 8.54954 8.21121 8.62768C8.13307 8.70582 8.02709 8.74971 7.91659 8.74971H2.08325C1.97275 8.74971 1.86676 8.70582 1.78862 8.62768C1.71048 8.54954 1.66659 8.44355 1.66659 8.33305V4.58305H8.33325V8.33305ZM8.33325 3.74971H1.66659V2.49971C1.66659 2.38921 1.71048 2.28323 1.78862 2.20509C1.86676 2.12695 1.97275 2.08305 2.08325 2.08305H2.49992V2.49971C2.49992 2.61022 2.54382 2.7162 2.62196 2.79434C2.7001 2.87248 2.80608 2.91638 2.91659 2.91638C3.02709 2.91638 3.13307 2.87248 3.21121 2.79434C3.28935 2.7162 3.33325 2.61022 3.33325 2.49971V2.08305H6.66659V2.49971C6.66659 2.61022 6.71048 2.7162 6.78862 2.79434C6.86676 2.87248 6.97275 2.91638 7.08325 2.91638C7.19376 2.91638 7.29974 2.87248 7.37788 2.79434C7.45602 2.7162 7.49992 2.61022 7.49992 2.49971V2.08305H7.91659C8.02709 2.08305 8.13307 2.12695 8.21121 2.20509C8.28935 2.28323 8.33325 2.38921 8.33325 2.49971V3.74971ZM2.91659 6.24971C2.99899 6.24971 3.07955 6.22528 3.14807 6.17949C3.21659 6.13371 3.27 6.06864 3.30154 5.9925C3.33307 5.91636 3.34132 5.83259 3.32525 5.75176C3.30917 5.67094 3.26948 5.59669 3.21121 5.53842C3.15294 5.48015 3.0787 5.44046 2.99787 5.42439C2.91705 5.40831 2.83327 5.41656 2.75713 5.4481C2.681 5.47963 2.61592 5.53304 2.57014 5.60156C2.52436 5.67008 2.49992 5.75064 2.49992 5.83305C2.49992 5.94355 2.54382 6.04954 2.62196 6.12768C2.7001 6.20582 2.80608 6.24971 2.91659 6.24971ZM2.91659 7.91638C2.99899 7.91638 3.07955 7.89194 3.14807 7.84616C3.21659 7.80038 3.27 7.7353 3.30154 7.65917C3.33307 7.58303 3.34132 7.49925 3.32525 7.41843C3.30917 7.3376 3.26948 7.26336 3.21121 7.20509C3.15294 7.14681 3.0787 7.10713 2.99787 7.09105C2.91705 7.07498 2.83327 7.08323 2.75713 7.11476C2.681 7.1463 2.61592 7.19971 2.57014 7.26823C2.52436 7.33675 2.49992 7.41731 2.49992 7.49971C2.49992 7.61022 2.54382 7.7162 2.62196 7.79434C2.7001 7.87248 2.80608 7.91638 2.91659 7.91638Z" fill="#AEABAB"/>
</g>
<defs>
<clipPath id="clip0_14_95">
<rect width="10" height="10" fill="white" transform="translate(0 -0.000244141)"/>
</clipPath>
</defs>
</svg>
