<svg width="27" height="28" viewBox="0 0 27 28" fill="none" xmlns="http://www.w3.org/2000/svg">
<g id="Communication / message">
<path id="Vector" d="M20.7888 5.22119H6.01103C5.17117 5.22119 4.36572 5.56922 3.77186 6.18871C3.17799 6.8082 2.84436 7.64841 2.84436 8.52451V19.5356C2.84436 20.4117 3.17799 21.2519 3.77186 21.8714C4.36572 22.4909 5.17117 22.8389 6.01103 22.8389H20.7888C21.6287 22.8389 22.4341 22.4909 23.028 21.8714C23.6218 21.2519 23.9555 20.4117 23.9555 19.5356V8.52451C23.9555 7.64841 23.6218 6.8082 23.028 6.18871C22.4341 5.56922 21.6287 5.22119 20.7888 5.22119ZM6.01103 7.4234H20.7888C21.0688 7.4234 21.3372 7.53941 21.5352 7.74591C21.7332 7.95241 21.8444 8.23248 21.8444 8.52451L13.3999 13.8979L4.95547 8.52451C4.95547 8.23248 5.06668 7.95241 5.26464 7.74591C5.46259 7.53941 5.73108 7.4234 6.01103 7.4234ZM21.8444 19.5356C21.8444 19.8276 21.7332 20.1077 21.5352 20.3142C21.3372 20.5207 21.0688 20.6367 20.7888 20.6367H6.01103C5.73108 20.6367 5.46259 20.5207 5.26464 20.3142C5.06668 20.1077 4.95547 19.8276 4.95547 19.5356V11.035L12.851 16.0671C13.0115 16.1637 13.1935 16.2146 13.3788 16.2146C13.5641 16.2146 13.7461 16.1637 13.9066 16.0671L21.8444 11.035V19.5356Z" fill="white"/>
</g>
</svg>
