<svg width="33" height="34" viewBox="0 0 33 34" fill="none" xmlns="http://www.w3.org/2000/svg">
<g id="Brands / social media">
<path id="Vector" d="M25.7674 13.6549C25.6418 13.4692 25.4726 13.3172 25.2746 13.2122C25.0765 13.1072 24.8557 13.0525 24.6316 13.0528H20.5263V10.316H23.5368C23.8998 10.316 24.2478 10.1718 24.5045 9.91519C24.7611 9.65857 24.9053 9.3105 24.9053 8.94757V3.47389C24.9053 3.11096 24.7611 2.7629 24.5045 2.50627C24.2478 2.24964 23.8998 2.10547 23.5368 2.10547H19.1579C17.0529 2.10547 15.0341 2.94167 13.5457 4.43012C12.0573 5.91856 11.221 7.93733 11.221 10.0423V13.0528H8.21052C7.8476 13.0528 7.49953 13.197 7.2429 13.4536C6.98627 13.7103 6.8421 14.0583 6.8421 14.4213V19.8949C6.8421 20.2579 6.98627 20.6059 7.2429 20.8626C7.49953 21.1192 7.8476 21.2634 8.21052 21.2634H11.221V30.8423C11.221 31.2052 11.3652 31.5533 11.6219 31.8099C11.8785 32.0666 12.2265 32.2107 12.5895 32.2107H19.1579C19.5208 32.2107 19.8689 32.0666 20.1255 31.8099C20.3821 31.5533 20.5263 31.2052 20.5263 30.8423V21.2634H22.4421C22.7162 21.2636 22.984 21.1816 23.2109 21.0279C23.4378 20.8742 23.6133 20.6559 23.7147 20.4013L25.9042 14.9276C25.9869 14.7204 26.0176 14.4961 25.9938 14.2743C25.9699 14.0525 25.8922 13.8398 25.7674 13.6549ZM21.5116 18.5265H19.1579C18.795 18.5265 18.4469 18.6707 18.1903 18.9273C17.9336 19.184 17.7895 19.532 17.7895 19.8949V29.4739H13.9579V19.8949C13.9579 19.532 13.8137 19.184 13.5571 18.9273C13.3005 18.6707 12.9524 18.5265 12.5895 18.5265H9.57894V15.7897H12.5895C12.9524 15.7897 13.3005 15.6455 13.5571 15.3889C13.8137 15.1322 13.9579 14.7842 13.9579 14.4213V10.0423C13.9615 8.6643 14.5105 7.34375 15.4849 6.36935C16.4593 5.39494 17.7799 4.84592 19.1579 4.84231H22.1684V7.57915H21.0737C20.6104 7.51165 20.1381 7.53998 19.6862 7.66238C19.2342 7.78478 18.8122 7.99864 18.4463 8.29073C18.2242 8.52322 18.0516 8.79828 17.9387 9.09931C17.8258 9.40035 17.775 9.72113 17.7895 10.0423V14.4213C17.7895 14.7842 17.9336 15.1322 18.1903 15.3889C18.4469 15.6455 18.795 15.7897 19.1579 15.7897H22.6063L21.5116 18.5265Z" fill="white"/>
</g>
</svg>
