<svg width="40" height="40" viewBox="0 0 40 40" fill="none" xmlns="http://www.w3.org/2000/svg">
<g id="Brands / social media">
<path id="Vector" d="M20.2632 11.4416C18.6468 11.4416 17.0667 11.9209 15.7227 12.8189C14.3788 13.7169 13.3313 14.9933 12.7127 16.4866C12.0942 17.9799 11.9323 19.6231 12.2477 21.2085C12.563 22.7938 13.3414 24.25 14.4843 25.3929C15.6273 26.5359 17.0835 27.3142 18.6688 27.6296C20.2541 27.9449 21.8973 27.7831 23.3906 27.1645C24.884 26.5459 26.1603 25.4984 27.0583 24.1545C27.9564 22.8105 28.4357 21.2304 28.4357 19.6141C28.4357 17.4466 27.5746 15.3679 26.042 13.8352C24.5093 12.3026 22.4306 11.4416 20.2632 11.4416ZM20.2632 24.5176C19.2933 24.5176 18.3453 24.23 17.5389 23.6912C16.7325 23.1524 16.104 22.3866 15.7329 21.4906C15.3618 20.5946 15.2647 19.6086 15.4539 18.6574C15.6431 17.7063 16.1101 16.8325 16.7958 16.1468C17.4816 15.461 18.3553 14.994 19.3065 14.8048C20.2577 14.6156 21.2436 14.7127 22.1396 15.0838C23.0356 15.455 23.8015 16.0835 24.3403 16.8898C24.8791 17.6962 25.1667 18.6443 25.1667 19.6141C25.1667 20.9146 24.65 22.1618 23.7305 23.0814C22.8109 24.001 21.5636 24.5176 20.2632 24.5176ZM28.4357 9.80705C28.1124 9.80705 27.7964 9.90292 27.5276 10.0825C27.2588 10.2621 27.0493 10.5174 26.9256 10.8161C26.8019 11.1147 26.7695 11.4434 26.8326 11.7604C26.8956 12.0775 27.0513 12.3687 27.2799 12.5973C27.5085 12.8259 27.7997 12.9816 28.1168 13.0447C28.4339 13.1077 28.7625 13.0754 29.0612 12.9516C29.3598 12.8279 29.6151 12.6184 29.7947 12.3496C29.9743 12.0808 30.0702 11.7648 30.0702 11.4416C30.0702 11.0081 29.898 10.5923 29.5914 10.2858C29.2849 9.97926 28.8692 9.80705 28.4357 9.80705ZM36.5101 13.4683C36.483 12.0715 36.2177 10.6896 35.7255 9.38208C35.2692 8.19227 34.5677 7.11175 33.6666 6.21065C32.7655 5.30956 31.685 4.60805 30.4951 4.15167C29.1876 3.65952 27.8057 3.39419 26.4089 3.36711C24.8234 3.26904 24.3004 3.26904 20.2632 3.26904C16.2259 3.26904 15.7029 3.26904 14.1174 3.36711C12.7206 3.39419 11.3387 3.65952 10.0312 4.15167C8.84135 4.60805 7.76082 5.30956 6.85973 6.21065C5.95864 7.11175 5.25713 8.19227 4.80075 9.38208C4.3086 10.6896 4.04327 12.0715 4.01619 13.4683C3.91812 15.0702 3.91812 15.5932 3.91812 19.6141C3.91812 23.635 3.91812 24.158 4.01619 25.7598C4.04327 27.1566 4.3086 28.5385 4.80075 29.8461C5.25713 31.0359 5.95864 32.1164 6.85973 33.0175C7.76082 33.9186 8.84135 34.6201 10.0312 35.0765C11.3387 35.5686 12.7206 35.834 14.1174 35.861C15.7519 35.861 16.2259 35.9591 20.2632 35.9591C24.3004 35.9591 24.8234 35.9591 26.4089 35.861C27.8057 35.834 29.1876 35.5686 30.4951 35.0765C31.685 34.6201 32.7655 33.9186 33.6666 33.0175C34.5677 32.1164 35.2692 31.0359 35.7255 29.8461C36.2177 28.5385 36.483 27.1566 36.5101 25.7598C36.5101 24.1253 36.6082 23.635 36.6082 19.6141C36.6082 15.5932 36.6082 15.0702 36.5101 13.4683ZM33.2411 25.6127C33.2125 26.65 33.0194 27.6761 32.669 28.6529C32.3794 29.4249 31.9215 30.1228 31.3287 30.696C30.759 31.2891 30.0597 31.7422 29.2856 32.02C28.3066 32.3846 27.2736 32.5835 26.2291 32.6084C24.6927 32.6084 24.2186 32.6901 20.2468 32.6901C16.275 32.6901 15.8173 32.6901 14.2809 32.6901C13.2381 32.6632 12.2063 32.4701 11.2243 32.118C10.4523 31.8284 9.75439 31.3705 9.18122 30.7777C8.58815 30.208 8.13501 29.5087 7.85727 28.7346C7.49409 27.7608 7.29525 26.7334 7.26885 25.6944C7.26885 24.0599 7.26885 23.6513 7.26885 19.6958C7.26885 15.7403 7.26885 15.2663 7.26885 13.6972C7.29703 12.6531 7.49579 11.6206 7.85727 10.6407C8.13932 9.87347 8.59204 9.18042 9.18122 8.61387C9.75097 8.0208 10.4503 7.56765 11.2243 7.28992C12.2034 6.92526 13.2364 6.72639 14.2809 6.7015C15.8173 6.53805 16.2913 6.53805 20.2632 6.53805C24.235 6.53805 24.709 6.53805 26.2454 6.53805C27.295 6.56474 28.3331 6.76352 29.3183 7.12647C30.0855 7.40852 30.7785 7.86123 31.3451 8.45042C31.9382 9.02017 32.3913 9.71946 32.669 10.4935C33.0692 11.4882 33.2958 12.5442 33.3392 13.6154C33.3392 15.2499 33.4209 15.6586 33.4209 19.6141C33.4209 23.5696 33.3392 24.0436 33.3392 25.6127H33.2411Z" fill="white"/>
</g>
</svg>
