<svg width="38" height="38" viewBox="0 0 38 38" fill="none" xmlns="http://www.w3.org/2000/svg">
<g id="Medical / medicine">
<path id="Vector" d="M30.875 7.125C29.3548 5.60508 27.2931 4.75122 25.1434 4.75122C22.9937 4.75122 20.932 5.60508 19.4117 7.125L7.12504 19.4117C6.35419 20.1603 5.73987 21.0547 5.3178 22.0429C4.89573 23.0311 4.67433 24.0933 4.66648 25.1679C4.65862 26.2424 4.86447 27.3078 5.27206 28.302C5.67964 29.2963 6.28082 30.1996 7.04065 30.9594C7.80047 31.7192 8.70377 32.3204 9.69803 32.728C10.6923 33.1356 11.7576 33.3414 12.8322 33.3336C13.9067 33.3257 14.9689 33.1043 15.9571 32.6822C16.9453 32.2602 17.8397 31.6458 18.5884 30.875L30.875 18.5883C32.395 17.0681 33.2488 15.0064 33.2488 12.8567C33.2488 10.7069 32.395 8.64524 30.875 7.125V7.125ZM16.34 28.6425C15.3964 29.5344 14.1472 30.0314 12.8488 30.0314C11.5504 30.0314 10.3012 29.5344 9.35754 28.6425C8.4361 27.7142 7.91902 26.4592 7.91902 25.1512C7.91902 23.8433 8.4361 22.5883 9.35754 21.66L14.3925 16.625L21.375 23.6075L16.34 28.6425ZM28.6425 16.34L23.6075 21.375L16.625 14.3925L21.66 9.3575C22.5958 8.48084 23.8358 8.0024 25.1179 8.0233C26.4 8.04421 27.6238 8.56283 28.5305 9.46954C29.4372 10.3762 29.9558 11.6 29.9767 12.8821C29.9976 14.1642 29.5192 15.4042 28.6425 16.34V16.34Z" fill="#1A2D57"/>
</g>
</svg>
