<svg width="22" height="23" viewBox="0 0 22 23" fill="none" xmlns="http://www.w3.org/2000/svg">
<g id="Brands / whatsapp">
<path id="Vector" d="M20.0056 6.44358C19.9955 6.03979 19.9656 5.63681 19.9159 5.23622C19.8489 4.88536 19.7372 4.54541 19.5839 4.22541C19.4235 3.87827 19.2082 3.56185 18.9469 3.28947C18.6832 3.02011 18.3804 2.79584 18.0497 2.62495C17.7425 2.46813 17.4166 2.35481 17.0807 2.28801C16.7003 2.22858 16.3167 2.19419 15.9322 2.18506H6.14352C5.75643 2.19558 5.37012 2.22681 4.9861 2.27865C4.64975 2.34854 4.32387 2.465 4.0171 2.62495C3.68433 2.79224 3.38099 3.0169 3.11988 3.28947C2.86166 3.56455 2.64668 3.88041 2.48285 4.22541C2.33252 4.54584 2.22389 4.88578 2.15985 5.23622C2.10288 5.633 2.06991 6.03313 2.06116 6.43422C2.06116 6.61205 2.06116 6.86476 2.06116 6.93963V16.1493C2.06116 16.2522 2.06116 16.4769 2.06116 16.6453C2.07124 17.0491 2.10119 17.4521 2.15088 17.8527C2.21787 18.2036 2.32952 18.5435 2.48285 18.8635C2.64322 19.2106 2.85858 19.5271 3.11988 19.7994C3.38358 20.0688 3.68638 20.2931 4.0171 20.464C4.32428 20.6208 4.65016 20.7341 4.9861 20.8009C5.36647 20.8603 5.75004 20.8947 6.13455 20.9039H15.9232C16.3103 20.8933 16.6966 20.8621 17.0807 20.8103C17.417 20.7404 17.7429 20.6239 18.0497 20.464C18.3824 20.2967 18.6858 20.072 18.9469 19.7994C19.2051 19.5244 19.4201 19.2085 19.5839 18.8635C19.7342 18.5431 19.8429 18.2031 19.9069 17.8527C19.9639 17.4559 19.9968 17.0558 20.0056 16.6547C20.0056 16.4769 20.0056 16.2522 20.0056 16.1493V6.93963C20.0056 6.86476 20.0056 6.61205 20.0056 6.44358ZM11.2397 18.096C10.1622 18.0905 9.10357 17.8007 8.16227 17.2537L4.75282 18.1896L5.65005 14.7079C5.07144 13.6938 4.76178 12.5374 4.75282 11.3573C4.7564 10.031 5.13612 8.73543 5.84417 7.63383C6.55222 6.53222 7.55693 5.6738 8.73176 5.1667C9.90659 4.65959 11.199 4.52647 12.4462 4.78411C13.6934 5.04174 14.8397 5.6786 15.7406 6.61449C16.6415 7.55037 17.2568 8.74343 17.5089 10.0434C17.7611 11.3433 17.6389 12.6921 17.1576 13.9197C16.6764 15.1473 15.8577 16.1989 14.8046 16.9421C13.7515 17.6853 12.5111 18.0868 11.2397 18.096ZM11.2397 5.80715C10.2885 5.8185 9.35716 6.09259 8.5405 6.60151C7.72384 7.11043 7.05104 7.83601 6.5906 8.70436C6.13016 9.57272 5.89853 10.5528 5.91929 11.5449C5.94005 12.5371 6.21245 13.5057 6.70877 14.3523L6.83438 14.5675L6.29605 16.6172L8.34171 16.037L8.5391 16.1586C9.35519 16.6601 10.2837 16.928 11.2308 16.9355C12.6585 16.9355 14.0278 16.3438 15.0374 15.2907C16.0469 14.2375 16.6141 12.8092 16.6141 11.3198C16.6141 9.83047 16.0469 8.40211 15.0374 7.34897C14.0278 6.29584 12.6585 5.70419 11.2308 5.70419L11.2397 5.80715ZM14.38 13.7814C14.2625 13.9858 14.1052 14.1623 13.9181 14.2993C13.7311 14.4364 13.5186 14.5309 13.2944 14.5769C12.9593 14.6408 12.6143 14.6183 12.2895 14.5114C11.9838 14.4117 11.6842 14.2929 11.3923 14.1557C10.2831 13.5751 9.33713 12.7045 8.64677 11.6287C8.27162 11.1303 8.044 10.5285 7.9918 9.8972C7.98645 9.63494 8.03401 9.37444 8.13139 9.13258C8.22877 8.89073 8.37379 8.67292 8.55705 8.49329C8.61103 8.42945 8.67725 8.37813 8.75143 8.34267C8.82562 8.3072 8.90611 8.28837 8.98771 8.28739H9.23893C9.33763 8.28739 9.47221 8.28738 9.59782 8.57753C9.72343 8.86767 10.0554 9.73809 10.1003 9.82233C10.1223 9.86723 10.1338 9.91695 10.1338 9.9674C10.1338 10.0178 10.1223 10.0676 10.1003 10.1125C10.0606 10.2142 10.0061 10.3089 9.93877 10.3932C9.85802 10.4962 9.7683 10.6179 9.69652 10.6927C9.62474 10.7676 9.53502 10.8612 9.62474 11.0297C9.86886 11.4595 10.171 11.8503 10.522 12.1903C10.9041 12.5425 11.341 12.8242 11.814 13.0232C11.9755 13.1075 12.0742 13.0981 12.1639 13.0232C12.2536 12.9484 12.5676 12.5366 12.6753 12.3681C12.783 12.1996 12.8906 12.2277 13.0342 12.2838C13.1777 12.34 13.9763 12.7425 14.1378 12.8267C14.2993 12.9109 14.398 12.9484 14.4428 13.0232C14.4817 13.2682 14.4601 13.5195 14.38 13.7533V13.7814Z" fill="white"/>
</g>
</svg>
