<svg width="39" height="40" viewBox="0 0 39 40" fill="none" xmlns="http://www.w3.org/2000/svg">
<g id="Brands / social media">
<path id="Vector" d="M25.2702 18.7288L17.4474 13.6838C17.2047 13.5437 16.9294 13.47 16.6491 13.47C16.3689 13.47 16.0936 13.5437 15.8509 13.6838C15.6142 13.8204 15.4165 14.0154 15.2767 14.2502C15.137 14.485 15.0598 14.7517 15.0526 15.0249V25.1147C15.0547 25.3992 15.1328 25.678 15.2787 25.9222C15.4247 26.1664 15.6332 26.3671 15.8828 26.5037C16.115 26.6404 16.3797 26.7121 16.6491 26.7112C16.9319 26.6917 17.2058 26.6041 17.4474 26.4558L25.2702 21.4109C25.4942 21.2661 25.6785 21.0676 25.806 20.8333C25.9336 20.599 26.0004 20.3366 26.0004 20.0698C26.0004 19.8031 25.9336 19.5406 25.806 19.3063C25.6785 19.0721 25.4942 18.8735 25.2702 18.7288ZM18.2456 22.1772V17.9624L21.4386 20.0698L18.2456 22.1772ZM31.6242 8.11209L29.1497 7.79279C23.0207 7.04238 16.8231 7.04238 10.6942 7.79279L8.21965 8.11209C7.0298 8.24158 5.92932 8.80476 5.12833 9.69409C4.32733 10.5834 3.88194 11.7366 3.8772 12.9335V27.2061C3.88735 28.3852 4.32502 29.5206 5.10896 30.4015C5.89291 31.2823 6.96985 31.8487 8.13983 31.9956L10.6144 32.2989C13.6761 32.671 16.7579 32.8523 19.8421 32.8417C22.927 32.8417 26.0088 32.6497 29.0698 32.267L31.5444 31.9637C32.7144 31.8168 33.7913 31.2504 34.5753 30.3695C35.3592 29.4887 35.7969 28.3533 35.807 27.1742V12.9335C35.8046 11.7489 35.3704 10.6057 34.5857 9.71822C33.8011 8.83071 32.7198 8.25968 31.5444 8.11209H31.6242ZM32.6939 27.27C32.6952 27.6722 32.5446 28.06 32.2723 28.356C32 28.652 31.626 28.8343 31.2251 28.8665L28.7505 29.1698C22.8877 29.9042 16.9562 29.9042 11.0933 29.1698L8.61878 28.8665C8.21787 28.8343 7.84389 28.652 7.57158 28.356C7.29927 28.06 7.14872 27.6722 7.15 27.27V12.9335C7.16903 12.5375 7.3265 12.1607 7.59493 11.8689C7.86336 11.5772 8.22572 11.3889 8.61878 11.337L11.0135 10.9698C16.877 10.246 22.8072 10.246 28.6707 10.9698L31.1453 11.2731C31.5383 11.325 31.9007 11.5133 32.1691 11.8051C32.4375 12.0969 32.595 12.4736 32.614 12.8696L32.6939 27.27Z" fill="white"/>
</g>
</svg>
